<svg width="352" height="276" viewBox="0 0 352 276" fill="none" xmlns="http://www.w3.org/2000/svg">
<path d="M293.426 230.927C287.246 237.539 280.165 243.249 272.392 247.887C272.214 247.997 272.033 248.1 271.851 248.206L259.267 237.074C259.399 236.951 259.545 236.813 259.703 236.662C269.079 227.763 315.628 165.543 318.73 150.392C318.516 151.654 321.529 201.155 293.426 230.927Z" fill="#F0F0F0"/>
<path d="M274.82 250.035C274.582 250.092 274.34 250.145 274.097 250.194L264.656 241.842C264.841 241.778 265.057 241.701 265.303 241.616C269.354 240.183 281.418 235.855 293.424 230.926C306.325 225.627 319.164 219.64 321.925 215.805C321.333 216.696 303.087 243.718 274.82 250.035Z" fill="#F0F0F0"/>
<path d="M293.251 66.2497H291.906V29.4371C291.906 26.6392 291.355 23.8686 290.284 21.2836C289.213 18.6987 287.642 16.3499 285.663 14.3714C283.683 12.393 281.334 10.8236 278.747 9.75284C276.161 8.6821 273.389 8.131 270.59 8.131H192.558C189.759 8.131 186.987 8.68209 184.401 9.75282C181.815 10.8235 179.465 12.3929 177.485 14.3714C175.506 16.3498 173.935 18.6986 172.864 21.2836C171.793 23.8686 171.242 26.6391 171.242 29.4371V231.394C171.242 234.192 171.793 236.962 172.864 239.547C173.935 242.132 175.506 244.481 177.485 246.46C179.465 248.438 181.814 250.007 184.401 251.078C186.987 252.149 189.759 252.7 192.558 252.7H270.59C273.389 252.7 276.161 252.149 278.747 251.078C281.333 250.007 283.683 248.438 285.663 246.46C287.642 244.481 289.212 242.132 290.284 239.547C291.355 236.962 291.906 234.192 291.906 231.394V92.4536H293.251V66.2497Z" fill="#3F3D56"/>
<path d="M287.369 29.5835V231.246C287.369 233.336 286.957 235.405 286.157 237.335C285.357 239.266 284.184 241.02 282.705 242.497C281.227 243.974 279.472 245.146 277.54 245.945C275.608 246.744 273.538 247.155 271.447 247.154H193.04C190.95 247.154 188.881 246.743 186.95 245.944C185.018 245.144 183.264 243.972 181.786 242.495C180.308 241.018 179.136 239.264 178.336 237.334C177.536 235.404 177.124 233.335 177.125 231.246V29.5835C177.124 27.4944 177.536 25.4257 178.336 23.4956C179.136 21.5655 180.308 19.8118 181.786 18.3346C183.264 16.8573 185.018 15.6856 186.95 14.8862C188.881 14.0868 190.95 13.6754 193.04 13.6756H202.555C202.088 14.8235 201.911 16.0685 202.038 17.3011C202.165 18.5337 202.594 19.7162 203.285 20.7445C203.977 21.7729 204.911 22.6156 206.005 23.1985C207.099 23.7814 208.32 24.0867 209.56 24.0875H254.262C255.502 24.0887 256.724 23.7847 257.819 23.2023C258.914 22.6199 259.849 21.7771 260.541 20.7482C261.234 19.7193 261.662 18.5359 261.788 17.3024C261.914 16.069 261.735 14.8234 261.266 13.6756H271.447C273.538 13.6748 275.608 14.0858 277.54 14.8849C279.472 15.684 281.227 16.8556 282.705 18.3329C284.184 19.8101 285.357 21.5641 286.157 23.4945C286.957 25.4249 287.369 27.494 287.369 29.5835Z" fill="white"/>
<path d="M262.979 134.378H194.062C192.855 134.377 191.698 133.897 190.844 133.044C189.99 132.191 189.51 131.034 189.509 129.828V127.562C189.51 126.356 189.99 125.199 190.844 124.346C191.698 123.493 192.855 123.013 194.062 123.012H262.979C264.186 123.013 265.344 123.493 266.197 124.346C267.051 125.199 267.531 126.356 267.532 127.562V129.828C267.531 131.034 267.051 132.191 266.197 133.044C265.344 133.897 264.186 134.377 262.979 134.378Z" fill="#F0F0F0"/>
<path d="M262.979 153.904H194.062C192.855 153.903 191.698 153.423 190.844 152.57C189.99 151.717 189.51 150.56 189.509 149.353V147.088C189.51 145.882 189.99 144.725 190.844 143.872C191.698 143.019 192.855 142.539 194.062 142.538H262.979C264.186 142.539 265.344 143.019 266.197 143.872C267.051 144.725 267.531 145.882 267.532 147.088V149.353C267.531 150.56 267.051 151.717 266.197 152.57C265.344 153.423 264.186 153.903 262.979 153.904Z" fill="#F0F0F0"/>
<path d="M266.427 130.011H197.509C196.242 130.01 195.027 129.506 194.13 128.61C193.234 127.714 192.73 126.5 192.729 125.233V122.968C192.73 121.701 193.234 120.487 194.13 119.591C195.027 118.695 196.242 118.191 197.509 118.19H266.427C267.694 118.191 268.909 118.695 269.805 119.591C270.702 120.487 271.206 121.701 271.207 122.968V125.233C271.206 126.5 270.702 127.714 269.805 128.61C268.909 129.506 267.694 130.01 266.427 130.011ZM197.509 119.1C196.483 119.101 195.5 119.509 194.774 120.234C194.048 120.959 193.64 121.942 193.639 122.968V125.233C193.64 126.259 194.048 127.242 194.774 127.967C195.5 128.692 196.483 129.1 197.509 129.101H266.427C267.453 129.1 268.436 128.692 269.162 127.967C269.887 127.242 270.296 126.259 270.297 125.233V122.968C270.296 121.942 269.887 120.959 269.162 120.234C268.436 119.509 267.453 119.101 266.427 119.1H197.509Z" fill="#3F3D56"/>
<path d="M266.427 149.537H197.509C196.242 149.536 195.027 149.032 194.13 148.136C193.234 147.24 192.73 146.026 192.729 144.759V142.494C192.73 141.227 193.234 140.012 194.13 139.117C195.027 138.221 196.242 137.717 197.509 137.716H266.427C267.694 137.717 268.909 138.221 269.805 139.117C270.702 140.012 271.206 141.227 271.207 142.494V144.759C271.206 146.026 270.702 147.24 269.805 148.136C268.909 149.032 267.694 149.536 266.427 149.537ZM197.509 138.626C196.483 138.627 195.5 139.035 194.774 139.76C194.048 140.485 193.64 141.468 193.639 142.494V144.759C193.64 145.785 194.048 146.768 194.774 147.493C195.5 148.218 196.483 148.626 197.509 148.627H266.427C267.453 148.626 268.436 148.218 269.162 147.493C269.887 146.768 270.296 145.785 270.297 144.759V142.494C270.296 141.468 269.887 140.485 269.162 139.76C268.436 139.035 267.453 138.627 266.427 138.626H197.509Z" fill="#3F3D56"/>
<path d="M287.369 29.5835V73.448C280.395 75.2817 273.094 75.492 266.027 74.0629C258.959 72.6338 252.314 69.6033 246.602 65.2045C240.89 60.8057 236.264 55.1559 233.08 48.6898C229.895 42.2237 228.237 35.1136 228.233 27.9066C228.233 26.6202 228.285 25.3472 228.388 24.0875H254.262C255.502 24.0887 256.724 23.7847 257.819 23.2023C258.914 22.6199 259.849 21.7771 260.541 20.7482C261.233 19.7193 261.662 18.5359 261.788 17.3024C261.914 16.069 261.735 14.8234 261.266 13.6756H271.447C273.538 13.6748 275.608 14.0858 277.54 14.8849C279.471 15.684 281.227 16.8556 282.705 18.3329C284.184 19.8101 285.357 21.5641 286.157 23.4945C286.957 25.4249 287.369 27.494 287.369 29.5835Z" fill="#F0F0F0"/>
<path d="M216.742 244.415C216.742 245.339 216.707 246.253 216.633 247.154H193.04C190.95 247.154 188.881 246.743 186.95 245.944C185.018 245.144 183.264 243.972 181.786 242.495C180.308 241.018 179.136 239.264 178.336 237.334C177.536 235.404 177.124 233.335 177.125 231.246V209.676C182.07 209.033 187.095 209.451 191.866 210.902C196.637 212.353 201.044 214.804 204.793 218.091C208.541 221.378 211.546 225.426 213.606 229.965C215.667 234.504 216.736 239.43 216.742 244.415Z" fill="#182D90"/>
<path d="M26.4627 206.567C27.1256 206.858 27.8771 206.875 28.5523 206.613C29.2276 206.351 29.7714 205.833 30.0645 205.171L51.3177 157.027C51.8041 155.925 51.9528 154.704 51.7448 153.518C51.5368 152.332 50.9816 151.234 50.1493 150.363C49.317 149.492 48.2451 148.888 47.069 148.626C45.893 148.364 44.6657 148.457 43.5423 148.892C42.2445 149.387 41.1584 150.317 40.4689 151.522C40.3593 151.713 40.2598 151.91 40.171 152.111L18.9179 200.255C18.773 200.583 18.6942 200.936 18.686 201.295C18.6778 201.653 18.7403 202.01 18.87 202.344C18.9997 202.679 19.194 202.984 19.4419 203.243C19.6897 203.503 19.9862 203.711 20.3144 203.855L26.4627 206.567Z" fill="#182D90"/>
<path d="M50.4452 176.792L29.4232 172.123L34.6263 158.365C35.5127 155.002 37.5755 152.069 40.4406 150.096C43.3057 148.123 46.7834 147.242 50.2427 147.613L50.4452 147.635L50.4452 176.792Z" fill="#2F2E41"/>
<path d="M92.9064 207.255C92.2881 207.254 91.6833 207.074 91.1653 206.737C90.6472 206.399 90.238 205.919 89.9871 205.354L68.7341 157.21C68.0581 155.679 67.9953 153.946 68.5585 152.369C69.1216 150.793 70.268 149.492 71.7616 148.734C73.2553 147.976 74.9827 147.82 76.5884 148.296C78.1941 148.773 79.5561 149.846 80.394 151.296C80.5118 151.501 80.6186 151.711 80.7139 151.927L101.967 200.071C102.308 200.844 102.328 201.721 102.023 202.509C101.717 203.297 101.111 203.931 100.338 204.272L93.981 207.075L93.9778 207.068C93.6342 207.192 93.2717 207.255 92.9064 207.255Z" fill="#182D90"/>
<path d="M63.5079 190.723C62.7836 190.724 62.0892 191.012 61.5771 191.523C61.0649 192.035 60.7769 192.729 60.7761 193.453V249.434C60.7769 250.158 61.0649 250.852 61.5771 251.364C62.0892 251.875 62.7836 252.163 63.5079 252.164H70.2279C70.9522 252.163 71.6465 251.875 72.1587 251.364C72.6708 250.852 72.9589 250.158 72.9597 249.434V193.453C72.9589 192.729 72.6708 192.035 72.1587 191.523C71.6465 191.012 70.9522 190.724 70.2279 190.723H63.5079Z" fill="#182D90"/>
<path d="M50.2165 190.723C49.4923 190.724 48.7979 191.012 48.2858 191.523C47.7736 192.035 47.4855 192.729 47.4847 193.453V249.434C47.4856 250.158 47.7736 250.852 48.2858 251.364C48.7979 251.875 49.4923 252.163 50.2165 252.164H56.9367C57.6609 252.163 58.3553 251.875 58.8675 251.364C59.3796 250.852 59.6677 250.158 59.6685 249.434V193.453C59.6677 192.729 59.3796 192.035 58.8675 191.523C58.3553 191.012 57.6609 190.724 56.9367 190.723H50.2165Z" fill="#182D90"/>
<path d="M60.0215 132.073C72.8457 132.073 83.2418 121.682 83.2418 108.865C83.2418 96.0468 72.8457 85.6559 60.0215 85.6559C47.1972 85.6559 36.8011 96.0468 36.8011 108.865C36.8011 121.682 47.1972 132.073 60.0215 132.073Z" fill="#182D90"/>
<path d="M67.7486 118.607C69.2538 118.566 71.1271 118.513 72.5703 117.46C73 117.133 73.3531 116.716 73.6048 116.239C73.8565 115.762 74.0007 115.235 74.0273 114.696C74.0534 114.313 73.9905 113.929 73.8436 113.574C73.6966 113.22 73.4696 112.904 73.1803 112.651C72.4265 112.015 71.3258 111.865 70.1397 112.214L71.3686 103.237L70.4665 103.114L69.0217 113.667L69.7751 113.321C70.6485 112.921 71.8474 112.717 72.5925 113.346C72.7754 113.511 72.9179 113.715 73.009 113.944C73.1 114.172 73.1371 114.419 73.1173 114.664C73.0952 115.065 72.9869 115.457 72.7999 115.812C72.6128 116.168 72.3513 116.479 72.0331 116.725C70.91 117.544 69.4169 117.65 67.7233 117.698L67.7486 118.607Z" fill="#2F2E41"/>
<path d="M80.7346 104.011H75.8303V104.922H80.7346V104.011Z" fill="#2F2E41"/>
<path d="M65.2544 104.011H60.3501V104.922H65.2544V104.011Z" fill="#2F2E41"/>
<path d="M83.0294 207.538L74.6719 146.558C74.5823 145.904 74.2587 145.305 73.7611 144.871C73.2635 144.437 72.6256 144.198 71.9652 144.198H65.6569C65.6831 144.048 65.6968 143.896 65.6978 143.743V141.468C65.6977 140.744 65.4099 140.049 64.8976 139.537C64.3853 139.025 63.6905 138.737 62.966 138.737H57.5023C56.7778 138.737 56.083 139.025 55.5707 139.537C55.0584 140.049 54.7706 140.744 54.7705 141.468V143.743C54.7715 143.896 54.7852 144.048 54.8115 144.198H48.503C47.8427 144.198 47.2048 144.437 46.7072 144.871C46.2096 145.305 45.886 145.904 45.7964 146.558L37.4389 207.538C37.3859 207.924 37.4164 208.317 37.5281 208.691C37.6399 209.064 37.8303 209.41 38.0868 209.703C38.3432 209.997 38.6596 210.233 39.0146 210.394C39.3697 210.555 39.7552 210.639 40.1453 210.639H80.3229C80.713 210.639 81.0985 210.555 81.4536 210.394C81.8087 210.233 82.1251 209.997 82.3815 209.703C82.6379 209.41 82.8284 209.064 82.9402 208.691C83.0519 208.317 83.0824 207.924 83.0294 207.538Z" fill="#2F2E41"/>
<path d="M70.0231 176.792V147.635L70.2256 147.613C73.6892 147.242 77.1706 148.126 80.0376 150.104C82.9045 152.081 84.9667 155.021 85.8494 158.389L91.045 172.123L70.0231 176.792Z" fill="#2F2E41"/>
<path d="M58.8522 132.798L42.7913 126.567C40.165 125.548 37.524 124.56 34.9116 123.506C33.7926 123.116 32.7618 122.509 31.8786 121.719C31.1097 120.906 30.5856 119.892 30.3665 118.795C29.8094 116.441 29.9102 113.868 29.9499 111.467C29.9807 108.84 30.197 106.218 30.5972 103.621C31.2986 98.7413 32.9457 94.0451 35.4463 89.7958C39.9504 82.4092 47.7108 76.8518 56.6373 77.2953C60.7699 77.5007 64.9263 78.9828 67.9968 81.8069C68.3171 82.1895 68.6764 82.5376 69.069 82.8456C69.3419 82.9479 69.6389 82.9678 69.923 82.9029C70.2977 82.8788 70.6727 82.8604 71.048 82.8478C72.3503 82.7929 73.6548 82.8476 74.9479 83.0113C77.3044 83.2657 79.5378 84.1926 81.3815 85.6813C82.9159 87.0006 84.1644 88.8631 84.2929 90.9328C84.3549 91.883 84.1977 92.8346 83.8335 93.7144C83.4692 94.5942 82.9076 95.3787 82.192 96.0072C80.2759 97.6213 77.542 97.0539 75.2435 96.9322L66.8233 96.4864L62.557 96.2604C61.6786 96.2139 61.6811 97.5793 62.557 97.6257L73.8962 98.2261C75.7185 98.3226 77.5965 98.5591 79.4201 98.4499C80.8214 98.3864 82.1594 97.8484 83.2143 96.9243C84.1776 96.0398 84.8952 94.9208 85.2971 93.6766C85.699 92.4323 85.7715 91.1052 85.5074 89.8246C84.9228 87.0316 82.8431 84.7211 80.405 83.3466C77.0877 81.4763 73.1257 81.2971 69.4137 81.5736L69.8967 81.7735C65.6978 77.2691 59.266 75.3673 53.228 76.0329C46.8527 76.7356 41.1825 80.2905 37.1085 85.1514C32.5662 90.5711 30.0909 97.329 29.1286 104.278C28.6279 108.03 28.463 111.819 28.636 115.6C28.6289 117.268 28.9143 118.924 29.4793 120.493C30.124 122.02 31.2896 123.269 32.7689 124.018C34.4649 124.836 36.2085 125.552 37.9902 126.162L43.9074 128.457L55.5305 132.966L58.4891 134.114C59.309 134.432 59.6642 133.113 58.8522 132.798Z" fill="#2F2E41"/>
<path d="M33.5991 86.4037C32.2033 86.4037 30.8389 85.9901 29.6783 85.215C28.5178 84.4399 27.6133 83.3383 27.0791 82.0494C26.545 80.7605 26.4052 79.3423 26.6775 77.974C26.9498 76.6057 27.622 75.3489 28.6089 74.3624C29.5959 73.3759 30.8534 72.7041 32.2223 72.432C33.5913 72.1598 35.0102 72.2995 36.2998 72.8334C37.5893 73.3672 38.6915 74.2713 39.4669 75.4313C40.2424 76.5913 40.6563 77.955 40.6563 79.3501C40.6542 81.2202 39.91 83.0131 38.5869 84.3354C37.2639 85.6578 35.4701 86.4016 33.5991 86.4037ZM33.5991 73.6617C32.4735 73.6617 31.3731 73.9953 30.4372 74.6203C29.5013 75.2454 28.7718 76.1338 28.3411 77.1732C27.9103 78.2127 27.7976 79.3564 28.0172 80.4598C28.2368 81.5633 28.7788 82.5769 29.5748 83.3724C30.3707 84.168 31.3848 84.7097 32.4888 84.9292C33.5928 85.1487 34.7371 85.0361 35.777 84.6055C36.817 84.175 37.7058 83.4459 38.3312 82.5104C38.9566 81.575 39.2904 80.4752 39.2904 79.3501C39.2887 77.8419 38.6885 76.3961 37.6216 75.3296C36.5546 74.2632 35.108 73.6634 33.5991 73.6617Z" fill="#2F2E41"/>
<path d="M149.285 166.819L148.861 143.79C148.759 138.268 144.201 133.874 138.679 133.975L115.628 134.399C110.106 134.501 105.712 139.059 105.814 144.581L106.237 167.61C106.339 173.132 110.898 177.527 116.419 177.425L139.47 177.001C144.992 176.9 149.386 172.341 149.285 166.819Z" fill="#F0F0F0"/>
<path d="M65.2424 25.8789C67.6559 25.877 70.0362 26.44 72.1929 27.5228C74.3495 28.6056 76.2225 30.1781 77.6618 32.1144L86.5811 20.4583L59.8191 0L39.3508 26.7488L50.8851 35.5662C52.0394 32.705 54.023 30.2538 56.5813 28.5277C59.1396 26.8015 62.1558 25.8791 65.2424 25.8789Z" fill="#F0F0F0"/>
<path d="M321.898 252.961H0.455301C0.334548 252.961 0.21874 252.913 0.133354 252.827C0.0479687 252.742 0 252.626 0 252.506C0 252.385 0.0479687 252.269 0.133354 252.184C0.21874 252.099 0.334548 252.051 0.455301 252.051H321.898C322.018 252.051 322.134 252.099 322.22 252.184C322.305 252.269 322.353 252.385 322.353 252.506C322.353 252.626 322.305 252.742 322.22 252.827C322.134 252.913 322.018 252.961 321.898 252.961Z" fill="#3F3D56"/>
<path d="M243.444 177.45H210.725C209.518 177.449 208.36 176.969 207.507 176.116C206.653 175.263 206.173 174.106 206.172 172.899V170.634C206.173 169.428 206.653 168.271 207.507 167.418C208.36 166.565 209.518 166.085 210.725 166.083H243.444C244.651 166.085 245.808 166.565 246.661 167.418C247.515 168.271 247.995 169.428 247.997 170.634V172.899C247.995 174.106 247.515 175.263 246.661 176.116C245.808 176.969 244.651 177.449 243.444 177.45Z" fill="#182D90"/>
<path d="M246.891 173.083H214.172C212.905 173.082 211.69 172.578 210.793 171.682C209.897 170.786 209.393 169.572 209.392 168.305V166.04C209.393 164.773 209.897 163.559 210.793 162.663C211.69 161.767 212.905 161.263 214.172 161.262H246.891C248.159 161.263 249.374 161.767 250.27 162.663C251.166 163.559 251.67 164.773 251.672 166.04V168.305C251.67 169.572 251.166 170.786 250.27 171.682C249.374 172.578 248.159 173.082 246.891 173.083ZM214.172 162.172C213.146 162.173 212.162 162.581 211.437 163.306C210.711 164.031 210.303 165.014 210.302 166.04V168.305C210.303 169.331 210.711 170.314 211.437 171.039C212.162 171.764 213.146 172.172 214.172 172.173H246.891C247.917 172.172 248.901 171.764 249.626 171.039C250.352 170.314 250.76 169.331 250.761 168.305V166.04C250.76 165.014 250.352 164.031 249.626 163.306C248.901 162.581 247.917 162.173 246.891 162.172H214.172Z" fill="#3F3D56"/>
<path d="M203.52 89.193V79.638H205.778C209.072 85.7897 209.569 86.723 209.732 87.1655H209.757C209.66 85.9839 209.646 84.429 209.646 82.8727V79.6395H211.26V89.1945H209.112C205.581 82.4677 205.241 81.7618 205.073 81.3885H205.058C205.13 82.6047 205.132 84.2394 205.132 85.9493V89.1945H203.52V89.193Z" fill="#182D90"/>
<path d="M213.538 79.638H219.455V81.044H215.186V83.7207H219.193V85.1072H215.186V89.1945H213.536V79.638H213.538Z" fill="#182D90"/>
<path d="M228.561 86.0664C228.294 87.6788 227.237 89.1945 224.848 89.1945C221.9 89.1945 220.821 86.9838 220.821 84.1595C220.821 81.3352 222.153 79.1829 224.923 79.1829C227.38 79.1829 228.386 80.7523 228.51 82.3079H226.846C226.634 81.3905 226.22 80.5804 224.866 80.5804C223.17 80.5804 222.563 82.3002 222.563 84.1549C222.563 86.0097 223.104 87.8077 224.886 87.8077C226.216 87.8077 226.67 86.9209 226.891 86.068H228.561V86.0664Z" fill="#182D90"/>
<path d="M233.42 79.8479L233.202 79.638L232.203 80.6281L232.422 80.8381C233.407 81.7868 233.957 83.0559 233.966 84.4109V84.4492C233.966 85.7903 233.437 87.0533 232.475 88.0067L232.26 88.2197L233.274 89.1945L233.489 88.9815C234.729 87.7538 235.404 86.1275 235.39 84.4017C235.378 82.6743 234.679 81.0573 233.422 79.8479H233.42Z" fill="#182D90"/>
<path d="M238.122 84.1672C238.103 81.6667 237.084 79.3243 235.252 77.5729L235.032 77.3626L234.025 78.3527L234.245 78.5629C235.804 80.0534 236.672 82.0474 236.688 84.1779V84.2363C236.688 86.3438 235.85 88.3286 234.327 89.8252L234.11 90.0385L235.131 91.0148L235.348 90.8014C237.136 89.0423 238.121 86.7107 238.121 84.2363V84.1687L238.122 84.1672Z" fill="#182D90"/>
<path d="M241.143 82.2768L241.099 82.0275C240.654 79.4891 239.454 77.1799 237.631 75.3474L237.374 75.0872L236.301 76.1951L236.566 76.46C238.329 78.2286 239.409 80.4802 239.694 82.9702L239.708 83.0839C239.76 83.5374 239.78 83.997 239.766 84.452L239.763 84.5705C239.685 87.3799 238.618 89.9244 236.679 91.9283L236.416 92.1994L237.502 93.2902L237.758 93.0268C239.731 90.9903 240.964 88.3101 241.235 85.482L241.26 85.2171C241.353 84.2354 241.315 83.2475 241.145 82.2768H241.143Z" fill="#182D90"/>
<path d="M233.511 103.302C228.483 103.302 223.455 101.393 219.627 97.5773C219.398 97.3492 219.398 96.9783 219.627 96.7502C219.855 96.5221 220.226 96.5221 220.456 96.7502C227.655 103.927 239.368 103.927 246.568 96.7502C250.056 93.2726 251.977 88.6499 251.977 83.7338C251.977 78.8178 250.056 74.1934 246.568 70.7175C239.37 63.5405 227.656 63.5405 220.456 70.7175C220.227 70.9456 219.857 70.9456 219.627 70.7175C219.398 70.4893 219.398 70.12 219.627 69.8904C227.283 62.2571 239.74 62.2571 247.396 69.8904C251.105 73.5883 253.147 78.5043 253.147 83.7338C253.147 88.9633 251.105 93.8794 247.396 97.5773C243.567 101.393 238.54 103.302 233.511 103.302Z" fill="#182D90"/>
<g clip-path="url(#clip0_1_177)">
<path d="M112.915 159.203V153.132H114.313C116.352 157.041 116.66 157.634 116.761 157.915H116.776C116.716 157.164 116.708 156.177 116.708 155.188V153.133H117.707V159.204H116.377C114.191 154.93 113.981 154.482 113.876 154.245H113.867C113.912 155.017 113.913 156.056 113.913 157.142V159.204H112.915V159.203Z" fill="#182D90"/>
<path d="M119.152 153.132H122.975V154.026H120.217V155.726H122.805V156.607H120.217V159.203H119.151V153.132H119.152Z" fill="#182D90"/>
<path d="M128.629 157.341C128.457 158.346 127.779 159.291 126.248 159.291C124.357 159.291 123.665 157.913 123.665 156.153C123.665 154.392 124.519 153.05 126.296 153.05C127.871 153.05 128.516 154.029 128.596 154.998H127.529C127.393 154.426 127.128 153.921 126.259 153.921C125.172 153.921 124.782 154.994 124.782 156.15C124.782 157.306 125.129 158.427 126.272 158.427C127.125 158.427 127.416 157.874 127.558 157.342H128.629V157.341Z" fill="#182D90"/>
<path d="M131.569 153.321L131.434 153.19L130.818 153.808L130.953 153.939C131.561 154.531 131.9 155.323 131.905 156.168V156.192C131.905 157.029 131.579 157.817 130.986 158.412L130.853 158.544L131.478 159.153L131.611 159.02C132.376 158.254 132.792 157.239 132.784 156.162C132.776 155.084 132.345 154.075 131.569 153.321H131.569Z" fill="#182D90"/>
<path d="M134.602 156.157C134.591 154.6 133.967 153.14 132.847 152.049L132.712 151.918L132.096 152.535L132.231 152.666C133.185 153.594 133.715 154.837 133.725 156.164V156.2C133.725 157.513 133.213 158.75 132.281 159.682L132.149 159.815L132.773 160.424L132.906 160.291C133.999 159.195 134.601 157.742 134.601 156.2V156.158L134.602 156.157Z" fill="#182D90"/>
<path d="M136.375 154.997L136.347 154.844C136.065 153.286 135.306 151.869 134.153 150.745L133.99 150.585L133.312 151.265L133.479 151.427C134.595 152.513 135.278 153.895 135.458 155.423L135.467 155.493C135.5 155.771 135.513 156.053 135.504 156.332L135.502 156.405C135.453 158.129 134.778 159.691 133.551 160.921L133.384 161.087L134.072 161.757L134.233 161.595C135.482 160.345 136.262 158.7 136.433 156.965L136.449 156.802C136.508 156.199 136.484 155.593 136.376 154.997H136.375Z" fill="#182D90"/>
<path d="M131.659 167.922C128.53 167.922 125.402 166.746 123.02 164.394C122.878 164.254 122.878 164.025 123.02 163.885C123.162 163.744 123.393 163.744 123.536 163.885C128.015 168.308 135.302 168.308 139.782 163.885C141.952 161.741 143.147 158.893 143.147 155.863C143.147 152.833 141.952 149.983 139.782 147.841C135.303 143.418 128.016 143.418 123.536 147.841C123.394 147.982 123.163 147.982 123.02 147.841C122.878 147.7 122.878 147.473 123.02 147.331C127.783 142.627 135.534 142.627 140.297 147.331C142.605 149.61 143.875 152.64 143.875 155.863C143.875 159.086 142.605 162.115 140.297 164.394C137.915 166.746 134.787 167.922 131.659 167.922Z" fill="#182D90"/>
</g>
<defs>
<clipPath id="clip0_1_177">
<rect width="30.9605" height="24.1189" fill="white" transform="translate(112.915 143.803)"/>
</clipPath>
</defs>
</svg>
