<svg width="288" height="257" viewBox="0 0 288 257" fill="none" xmlns="http://www.w3.org/2000/svg">
<g clip-path="url(#clip0_1_120)">
<path d="M221.288 179.048C220.685 179.047 220.104 178.808 219.664 178.378C219.224 177.949 218.957 177.361 218.917 176.735L218.564 171.126C218.523 170.47 218.734 169.825 219.15 169.331C219.566 168.838 220.153 168.536 220.783 168.494L263.02 165.616C263.686 165.57 264.354 165.661 264.986 165.884C265.619 166.107 266.202 166.457 266.704 166.915C267.206 167.372 267.617 167.929 267.912 168.552C268.208 169.174 268.382 169.852 268.426 170.545C268.469 171.238 268.381 171.933 268.166 172.591C267.952 173.248 267.615 173.855 267.174 174.377C266.734 174.899 266.199 175.326 265.6 175.633C265.001 175.94 264.35 176.12 263.684 176.165L221.447 179.043C221.394 179.047 221.341 179.048 221.288 179.048Z" fill="#182D90"/>
<path d="M229.616 179.772C229.001 179.771 228.41 179.522 227.967 179.078C227.524 178.633 227.264 178.028 227.24 177.388L226.939 169.01C226.927 168.686 226.977 168.362 227.086 168.057C227.195 167.752 227.36 167.473 227.573 167.234C227.785 166.996 228.041 166.804 228.325 166.668C228.609 166.533 228.916 166.457 229.228 166.444L263.96 165.094C264.591 165.069 265.205 165.306 265.667 165.753C266.13 166.2 266.403 166.819 266.427 167.475L266.728 175.853C266.739 176.178 266.689 176.502 266.581 176.807C266.472 177.112 266.307 177.391 266.094 177.629C265.882 177.868 265.626 178.06 265.342 178.196C265.058 178.331 264.751 178.407 264.439 178.419L229.706 179.77C229.676 179.771 229.646 179.772 229.616 179.772Z" fill="#2F2E41"/>
<path d="M270.317 257H264.915C264.284 256.999 263.679 256.738 263.233 256.274C262.787 255.81 262.536 255.181 262.535 254.525V207.675C262.536 207.019 262.787 206.389 263.233 205.925C263.679 205.461 264.284 205.2 264.915 205.199H270.317C270.948 205.2 271.553 205.461 271.999 205.925C272.445 206.389 272.696 207.019 272.697 207.675V254.525C272.696 255.181 272.445 255.81 271.999 256.274C271.553 256.738 270.948 256.999 270.317 257Z" fill="#2F2E41"/>
<path d="M257.412 257H252.009C251.378 256.999 250.773 256.738 250.327 256.274C249.881 255.81 249.63 255.181 249.63 254.525V207.675C249.63 207.019 249.881 206.389 250.327 205.925C250.773 205.461 251.378 205.2 252.009 205.199H257.412C258.042 205.2 258.647 205.461 259.093 205.925C259.539 206.389 259.79 207.019 259.791 207.675V254.525C259.79 255.181 259.539 255.81 259.093 256.274C258.647 256.738 258.042 256.999 257.412 257Z" fill="#2F2E41"/>
<path d="M262.112 156.307C272.422 156.307 280.78 147.611 280.78 136.884C280.78 126.157 272.422 117.461 262.112 117.461C251.802 117.461 243.444 126.157 243.444 136.884C243.444 147.611 251.802 156.307 262.112 156.307Z" fill="#182D90"/>
<path d="M252.007 143.515C251.406 143.31 250.855 142.973 250.39 142.528C250.082 142.21 249.844 141.826 249.694 141.402C249.544 140.979 249.484 140.526 249.52 140.076C249.539 139.755 249.63 139.444 249.784 139.165C249.939 138.887 250.153 138.65 250.41 138.472C251.078 138.026 251.971 138.025 252.88 138.442L252.845 130.859L253.577 130.856L253.618 139.77L253.054 139.401C252.4 138.973 251.466 138.673 250.805 139.113C250.642 139.23 250.507 139.384 250.411 139.563C250.314 139.743 250.259 139.943 250.249 140.149C250.224 140.484 250.269 140.821 250.381 141.136C250.492 141.452 250.668 141.739 250.896 141.977C251.704 142.78 252.883 143.032 254.228 143.256L254.112 144.008C253.398 143.91 252.693 143.745 252.007 143.515Z" fill="#2F2E41"/>
<path d="M245.299 130.477L245.203 131.232L249.112 131.769L249.208 131.014L245.299 130.477Z" fill="#2F2E41"/>
<path d="M257.637 132.171L257.541 132.926L261.45 133.463L261.546 132.708L257.637 132.171Z" fill="#2F2E41"/>
<path d="M274.285 220.245H246.22C245.525 220.244 244.85 220.001 244.303 219.556C243.755 219.11 243.367 218.486 243.199 217.785C243.116 217.4 243.102 217.002 243.158 216.611C243.158 216.611 248.64 184.582 251.352 169.199C251.747 166.957 252.886 164.93 254.569 163.471C256.253 162.012 258.374 161.213 260.565 161.214C265.935 161.214 271.085 163.433 274.881 167.383C278.678 171.334 280.811 176.691 280.811 182.278V213.455C280.811 214.346 280.642 215.229 280.314 216.053C279.986 216.877 279.506 217.625 278.9 218.256C278.294 218.887 277.574 219.387 276.782 219.728C275.99 220.069 275.142 220.245 274.285 220.245Z" fill="#2F2E41"/>
<path d="M268.873 216.013C268.668 216.44 268.348 216.797 267.952 217.04C267.557 217.283 267.102 217.402 266.643 217.382L261.245 217.145C260.933 217.132 260.627 217.054 260.343 216.917C260.06 216.78 259.805 216.587 259.594 216.347C259.382 216.108 259.218 215.828 259.111 215.522C259.004 215.217 258.955 214.893 258.968 214.568L260.75 170.568C260.778 169.874 260.937 169.193 261.218 168.564C261.499 167.934 261.896 167.368 262.388 166.899C262.879 166.429 263.454 166.064 264.081 165.826C264.707 165.588 265.373 165.48 266.04 165.509C266.706 165.538 267.361 165.704 267.966 165.996C268.571 166.289 269.115 166.702 269.566 167.213C270.018 167.724 270.368 168.323 270.597 168.975C270.826 169.627 270.93 170.319 270.902 171.013L269.12 215.013C269.107 215.361 269.022 215.701 268.873 216.013Z" fill="#182D90"/>
<path d="M271.636 204.346C271.431 204.774 271.111 205.13 270.715 205.373C270.32 205.616 269.865 205.735 269.406 205.715L260.186 205.311C259.556 205.283 258.962 204.996 258.536 204.512C258.109 204.029 257.883 203.39 257.909 202.734L259.372 166.604C259.385 166.279 259.46 165.96 259.591 165.665C259.723 165.37 259.909 165.105 260.139 164.885C260.369 164.665 260.639 164.494 260.932 164.383C261.226 164.271 261.537 164.221 261.849 164.234L271.069 164.638C271.381 164.652 271.688 164.73 271.971 164.867C272.255 165.003 272.509 165.197 272.721 165.437C272.932 165.676 273.096 165.956 273.204 166.262C273.311 166.567 273.359 166.891 273.346 167.216L271.883 203.346C271.87 203.694 271.785 204.035 271.636 204.346Z" fill="#2F2E41"/>
<path d="M261.074 124.267C257.047 125.92 250.963 127.676 248.308 122.771C247.79 121.768 247.483 120.662 247.408 119.527C247.333 118.391 247.491 117.252 247.871 116.185C248.673 113.871 250.379 111.964 252.322 110.617C255.963 108.093 260.57 107.406 264.811 108.382C266.943 108.865 268.966 109.769 270.77 111.046C272.821 112.509 274.265 114.484 275.717 116.551C277.201 118.664 278.881 120.795 281.32 121.721C283.314 122.478 285.815 122.091 287.225 120.33C287.555 119.919 287.807 119.447 287.97 118.94C288.182 118.292 287.198 118.015 286.988 118.658C286.247 120.924 283.518 121.432 281.591 120.699C279.048 119.73 277.441 117.214 275.916 115.041C274.457 112.965 272.845 111.136 270.739 109.759C268.846 108.529 266.749 107.678 264.556 107.247C260.141 106.373 255.387 107.148 251.646 109.816C249.584 111.221 247.969 113.23 247.003 115.589C246.147 117.821 246.168 120.314 247.064 122.53C247.514 123.634 248.216 124.607 249.11 125.365C250.004 126.123 251.061 126.642 252.192 126.878C254.658 127.398 257.221 126.799 259.563 125.975C260.163 125.763 260.756 125.531 261.345 125.29C261.948 125.042 261.685 124.017 261.074 124.267Z" fill="#2F2E41"/>
<path d="M16.3444 0H144.151C148.484 0.00507662 152.639 1.79835 155.703 4.98639C158.767 8.17443 160.491 12.4969 160.495 17.0055V89.7535C160.491 94.2621 158.767 98.5846 155.703 101.773C152.639 104.961 148.484 106.754 144.151 106.759H16.3444C12.0111 106.754 7.85665 104.961 4.79254 101.773C1.72842 98.5846 0.00486939 94.2621 0 89.7535V17.0055C0.00486848 12.4969 1.72842 8.17443 4.79254 4.98639C7.85665 1.79835 12.0111 0.00507662 16.3444 0Z" fill="#182D90"/>
<path d="M16.3442 4.8955H144.151C147.237 4.8991 150.195 6.17612 152.377 8.4464C154.559 10.7167 155.787 13.7948 155.79 17.0054V89.7535C155.787 92.9642 154.559 96.0423 152.377 98.3126C150.195 100.583 147.237 101.86 144.151 101.863H16.3442C13.2584 101.86 10.3 100.583 8.11797 98.3125C5.93598 96.0423 4.70861 92.9642 4.70515 89.7535V17.0054C4.70861 13.7948 5.93597 10.7167 8.11797 8.44645C10.3 6.17617 13.2584 4.89913 16.3442 4.8955Z" fill="white"/>
<path d="M17.5913 132.805C17.2057 132.804 16.824 132.724 16.4683 132.569C15.9372 132.347 15.483 131.963 15.165 131.468C14.8471 130.973 14.6802 130.39 14.6862 129.794V104.646L46.9106 103.518L19.6142 131.918C19.3503 132.198 19.0356 132.42 18.6883 132.573C18.3411 132.725 17.9682 132.804 17.5913 132.805Z" fill="#182D90"/>
<path d="M128.144 22.9906H32.0399C28.1922 22.9906 25.073 26.236 25.073 30.2393V30.2393C25.073 34.2427 28.1922 37.488 32.0399 37.488H128.144C131.992 37.488 135.111 34.2427 135.111 30.2393C135.111 26.236 131.992 22.9906 128.144 22.9906Z" fill="#E4E3E3"/>
<path d="M128.3 46.1308H32.1956C28.3479 46.1308 25.2287 49.3761 25.2287 53.3795V53.3795C25.2287 57.3828 28.3479 60.6282 32.1956 60.6282H128.3C132.148 60.6282 135.267 57.3828 135.267 53.3795C135.267 49.3761 132.148 46.1308 128.3 46.1308Z" fill="#E4E3E3"/>
<path d="M128.455 69.2709H32.3513C28.5036 69.2709 25.3844 72.5163 25.3844 76.5196V76.5197C25.3844 80.523 28.5036 83.7684 32.3513 83.7684H128.455C132.303 83.7684 135.422 80.523 135.422 76.5196C135.422 72.5163 132.303 69.2709 128.455 69.2709Z" fill="#E4E3E3"/>
<path d="M218.161 37.1027H90.3542C86.0208 37.1078 81.8664 38.9011 78.8023 42.0891C75.7382 45.2771 74.0146 49.5996 74.0098 54.1082V126.856C74.0146 131.365 75.7382 135.687 78.8023 138.875C81.8664 142.063 86.0208 143.857 90.3542 143.862H218.161C222.494 143.857 226.649 142.063 229.713 138.875C232.777 135.687 234.5 131.365 234.505 126.856V54.1082C234.5 49.5996 232.777 45.2771 229.713 42.0891C226.649 38.9011 222.494 37.1078 218.161 37.1027Z" fill="#182D90"/>
<path d="M218.161 41.9982H90.3542C87.2683 42.0018 84.3098 43.2788 82.1278 45.5491C79.9458 47.8194 78.7184 50.8975 78.7149 54.1082V126.856C78.7184 130.067 79.9458 133.145 82.1278 135.415C84.3098 137.686 87.2683 138.963 90.3542 138.966H218.161C221.247 138.963 224.205 137.686 226.387 135.415C228.569 133.145 229.797 130.067 229.8 126.856V54.1082C229.797 50.8975 228.569 47.8194 226.387 45.5492C224.205 43.2789 221.247 42.0018 218.161 41.9982Z" fill="white"/>
<path d="M208.438 169.021L181.142 140.62L213.366 141.748V166.897C213.372 167.492 213.205 168.076 212.887 168.571C212.569 169.066 212.115 169.45 211.584 169.672C211.228 169.826 210.847 169.907 210.461 169.908C210.084 169.907 209.711 169.828 209.364 169.675C209.017 169.523 208.702 169.3 208.438 169.021Z" fill="#182D90"/>
<path d="M126.069 99.6695C130.945 99.6695 134.899 95.5562 134.899 90.4822C134.899 85.4082 130.945 81.2949 126.069 81.2949C121.192 81.2949 117.238 85.4082 117.238 90.4822C117.238 95.5562 121.192 99.6695 126.069 99.6695Z" fill="#182D90"/>
<path d="M154.257 99.6695C159.134 99.6695 163.088 95.5562 163.088 90.4822C163.088 85.4082 159.134 81.2949 154.257 81.2949C149.381 81.2949 145.427 85.4082 145.427 90.4822C145.427 95.5562 149.381 99.6695 154.257 99.6695Z" fill="#182D90"/>
<path d="M182.446 99.6695C187.323 99.6695 191.276 95.5562 191.276 90.4822C191.276 85.4082 187.323 81.2949 182.446 81.2949C177.569 81.2949 173.616 85.4082 173.616 90.4822C173.616 95.5562 177.569 99.6695 182.446 99.6695Z" fill="#182D90"/>
</g>
<defs>
<clipPath id="clip0_1_120">
<rect width="288" height="257" fill="white"/>
</clipPath>
</defs>
</svg>
