<svg width="370" height="318" viewBox="0 0 370 318" fill="none" xmlns="http://www.w3.org/2000/svg">
<path d="M223.913 83.2027H212.609C212.032 83.2021 211.48 82.9724 211.072 82.5641C210.665 82.1557 210.435 81.6021 210.435 81.0247V69.6986C210.435 69.1212 210.665 68.5675 211.072 68.1592C211.48 67.7509 212.032 67.5212 212.609 67.5205H223.913C224.489 67.5212 225.042 67.7509 225.45 68.1592C225.857 68.5675 226.086 69.1212 226.087 69.6986V81.0247C226.086 81.6021 225.857 82.1557 225.45 82.5641C225.042 82.9724 224.489 83.2021 223.913 83.2027ZM212.609 68.3918C212.263 68.3922 211.931 68.53 211.687 68.775C211.442 69.02 211.305 69.3521 211.304 69.6986V81.0247C211.305 81.3711 211.442 81.7033 211.687 81.9483C211.931 82.1933 212.263 82.3311 212.609 82.3315H223.913C224.259 82.3311 224.59 82.1933 224.835 81.9483C225.079 81.7033 225.217 81.3711 225.217 81.0247V69.6986C225.217 69.3521 225.079 69.02 224.835 68.775C224.59 68.53 224.259 68.3922 223.913 68.3918H212.609Z" fill="#E6E6E6"/>
<path d="M92.1739 15.6822H80.8696C80.2932 15.6815 79.7406 15.4518 79.3331 15.0435C78.9255 14.6352 78.6963 14.0816 78.6956 13.5041V2.17808C78.6963 1.60062 78.9255 1.047 79.3331 0.638675C79.7406 0.230348 80.2932 0.000660635 80.8696 0H92.1739C92.7503 0.000660635 93.3028 0.230348 93.7104 0.638675C94.1179 1.047 94.3472 1.60062 94.3478 2.17808V13.5041C94.3472 14.0816 94.1179 14.6352 93.7104 15.0435C93.3028 15.4518 92.7503 15.6815 92.1739 15.6822ZM80.8696 0.871233C80.5237 0.871611 80.1922 1.00942 79.9477 1.25442C79.7031 1.49942 79.5656 1.8316 79.5652 2.17808V13.5041C79.5656 13.8506 79.7031 14.1828 79.9477 14.4278C80.1922 14.6728 80.5237 14.8106 80.8696 14.811H92.1739C92.5197 14.8106 92.8513 14.6728 93.0958 14.4278C93.3403 14.1828 93.4779 13.8506 93.4783 13.5041V2.17808C93.4779 1.8316 93.3403 1.49942 93.0958 1.25442C92.8513 1.00942 92.5197 0.871611 92.1739 0.871233H80.8696Z" fill="#E6E6E6"/>
<path d="M216.957 77.5397H205.652C205.076 77.5391 204.523 77.3094 204.116 76.901C203.708 76.4927 203.479 75.9391 203.478 75.3616V64.0356C203.479 63.4582 203.708 62.9045 204.116 62.4962C204.523 62.0879 205.076 61.8582 205.652 61.8575H216.957C217.533 61.8582 218.085 62.0879 218.493 62.4962C218.901 62.9045 219.13 63.4582 219.13 64.0356V75.3616C219.13 75.9391 218.901 76.4927 218.493 76.901C218.085 77.3094 217.533 77.5391 216.957 77.5397ZM205.652 62.7288C205.306 62.7291 204.975 62.8669 204.73 63.1119C204.486 63.3569 204.348 63.6891 204.348 64.0356V75.3616C204.348 75.7081 204.486 76.0403 204.73 76.2853C204.975 76.5303 205.306 76.6681 205.652 76.6685H216.957C217.302 76.6681 217.634 76.5303 217.878 76.2853C218.123 76.0403 218.261 75.7081 218.261 75.3616V64.0356C218.261 63.6891 218.123 63.3569 217.878 63.1119C217.634 62.8669 217.302 62.7291 216.957 62.7288H205.652Z" fill="#E6E6E6"/>
<path d="M20.4348 172.068H9.13044C8.55409 172.068 8.00153 171.838 7.59398 171.43C7.18644 171.021 6.95719 170.468 6.95653 169.89V158.564C6.95719 157.987 7.18644 157.433 7.59398 157.025C8.00153 156.617 8.55409 156.387 9.13044 156.386H20.4348C21.0111 156.387 21.5637 156.617 21.9712 157.025C22.3788 157.433 22.608 157.987 22.6087 158.564V169.89C22.608 170.468 22.3788 171.021 21.9712 171.43C21.5637 171.838 21.0111 172.068 20.4348 172.068ZM9.13044 157.258C8.78462 157.258 8.45308 157.396 8.20854 157.641C7.96401 157.886 7.82647 158.218 7.82609 158.564V169.89C7.82647 170.237 7.96401 170.569 8.20854 170.814C8.45308 171.059 8.78462 171.197 9.13044 171.197H20.4348C20.7806 171.197 21.1122 171.059 21.3567 170.814C21.6012 170.569 21.7388 170.237 21.7391 169.89V158.564C21.7388 158.218 21.6012 157.886 21.3567 157.641C21.1122 157.396 20.7806 157.258 20.4348 157.258H9.13044Z" fill="#E6E6E6"/>
<path d="M13.4783 166.405H2.17391C1.59756 166.405 1.045 166.175 0.637452 165.767C0.229908 165.358 0.00065937 164.805 0 164.227V152.901C0.00065937 152.324 0.229908 151.77 0.637452 151.362C1.045 150.954 1.59756 150.724 2.17391 150.723H13.4783C14.0546 150.724 14.6072 150.954 15.0147 151.362C15.4223 151.77 15.6515 152.324 15.6522 152.901V164.227C15.6515 164.805 15.4223 165.358 15.0147 165.767C14.6072 166.175 14.0546 166.405 13.4783 166.405ZM2.17391 151.595C1.82809 151.595 1.49655 151.733 1.25202 151.978C1.00749 152.223 0.869943 152.555 0.869565 152.901V164.227C0.869943 164.574 1.00749 164.906 1.25202 165.151C1.49655 165.396 1.82809 165.534 2.17391 165.534H13.4783C13.8241 165.534 14.1556 165.396 14.4002 165.151C14.6447 164.906 14.7822 164.574 14.7826 164.227V152.901C14.7822 152.555 14.6447 152.223 14.4002 151.978C14.1556 151.733 13.8241 151.595 13.4783 151.595H2.17391Z" fill="#E6E6E6"/>
<path d="M40.1867 37.4798H144.802C149.85 37.4798 154.748 39.2007 158.691 42.3595C162.634 45.5183 165.387 49.9271 166.497 54.8612L219.357 289.775C219.933 292.337 219.944 294.995 219.387 297.561C218.83 300.128 217.719 302.542 216.133 304.633C214.546 306.724 212.523 308.442 210.203 309.667C207.884 310.891 205.326 311.593 202.707 311.722L95.162 317.031C89.4033 317.315 83.7381 315.491 79.2235 311.898C74.7089 308.304 71.6533 303.188 70.6271 297.504L40.6416 131.417L38.4108 132.056L32.6733 100.576L34.9696 100.001L26.5996 53.6401C26.2411 51.6543 26.3243 49.6138 26.8431 47.664C27.362 45.7142 28.3038 43.903 29.6014 42.3597C30.899 40.8163 32.5204 39.5788 34.3501 38.7353C36.1798 37.8918 38.1727 37.4631 40.1867 37.4798Z" fill="#3F3D56"/>
<path d="M131.03 42.5439H143.241C146.748 42.5439 150.15 43.7456 152.881 45.9496C155.613 48.1535 157.51 51.227 158.257 54.66L208.996 287.657C209.288 288.998 209.287 290.387 208.995 291.729C208.702 293.07 208.124 294.332 207.3 295.429C206.476 296.526 205.425 297.432 204.219 298.085C203.014 298.738 201.682 299.122 200.314 299.212L93.1167 306.251C90.0924 306.45 87.1011 305.526 84.7135 303.655C82.3259 301.785 80.7093 299.099 80.172 296.111L36.8766 55.2858C36.5963 53.7271 36.661 52.1258 37.0659 50.5948C37.4708 49.0638 38.2062 47.6406 39.22 46.4254C40.2339 45.2103 41.5016 44.2329 42.9336 43.5622C44.3657 42.8916 45.9272 42.544 47.508 42.544H59.0928C60.214 42.544 61.304 42.9143 62.1939 43.5977C63.0839 44.281 63.7242 45.2392 64.0157 46.324C64.273 47.2817 64.8383 48.1276 65.6239 48.7309C66.4096 49.3341 67.3719 49.6611 68.3617 49.6611H123.359C125.297 49.6611 127.164 48.9281 128.586 47.6085C130.008 46.289 130.881 44.4803 131.03 42.5439Z" fill="white"/>
<path d="M45.2174 82.1599H161.511L173.9 138.09L56.087 140.269L45.2174 82.1599Z" fill="#182D90"/>
<path d="M155.652 188.079H183.031L183.9 193.331H156.522L155.652 188.079Z" fill="#182D90"/>
<path d="M177.928 161.29L61.8131 163.753L61.8247 164.301L177.94 161.837L177.928 161.29Z" fill="#2F2E41"/>
<path d="M181.48 177.44L63.1787 180.177L63.1913 180.725L181.492 177.988L181.48 177.44Z" fill="#2F2E41"/>
<path d="M166.957 244.274H194.335L195.205 249.525H167.826L166.957 244.274Z" fill="#182D90"/>
<path d="M189.233 217.484L73.1175 219.948L73.129 220.495L189.244 218.032L189.233 217.484Z" fill="#2F2E41"/>
<path d="M192.784 233.635L74.4831 236.372L74.4957 236.919L192.796 234.182L192.784 233.635Z" fill="#2F2E41"/>
<path d="M369.565 318H203.913C203.798 318 203.687 317.954 203.606 317.872C203.524 317.791 203.478 317.68 203.478 317.564C203.478 317.449 203.524 317.338 203.606 317.256C203.687 317.175 203.798 317.129 203.913 317.129H369.565C369.681 317.129 369.791 317.175 369.873 317.256C369.954 317.338 370 317.449 370 317.564C370 317.68 369.954 317.791 369.873 317.872C369.791 317.954 369.681 318 369.565 318Z" fill="#3F3D56"/>
<path d="M239.77 227.935C239.051 227.934 238.36 227.659 237.836 227.167C237.313 226.675 236.995 226.001 236.948 225.283L236.528 218.854C236.479 218.103 236.729 217.363 237.225 216.798C237.72 216.232 238.419 215.886 239.169 215.837L289.441 212.539C291.041 212.435 292.616 212.972 293.821 214.031C295.026 215.091 295.761 216.586 295.866 218.189C295.971 219.792 295.436 221.37 294.38 222.578C293.323 223.786 291.831 224.524 290.231 224.631L239.959 227.929C239.896 227.933 239.833 227.935 239.77 227.935Z" fill="#182D90"/>
<path d="M249.683 228.764C248.95 228.763 248.247 228.478 247.72 227.969C247.192 227.459 246.882 226.766 246.854 226.032L246.496 216.43C246.482 216.057 246.541 215.686 246.671 215.337C246.8 214.987 246.997 214.667 247.25 214.394C247.503 214.121 247.807 213.9 248.145 213.745C248.483 213.59 248.848 213.503 249.22 213.489L290.56 211.941C291.311 211.912 292.042 212.184 292.593 212.696C293.143 213.208 293.468 213.918 293.496 214.67L293.855 224.273C293.868 224.645 293.809 225.016 293.68 225.366C293.55 225.715 293.353 226.035 293.1 226.309C292.847 226.582 292.543 226.802 292.205 226.958C291.867 227.113 291.502 227.2 291.13 227.214L249.79 228.762C249.754 228.763 249.718 228.764 249.683 228.764Z" fill="#2F2E41"/>
<path d="M298.127 317.282H291.697C290.946 317.281 290.226 316.982 289.695 316.45C289.164 315.918 288.865 315.197 288.865 314.445V260.746C288.865 259.994 289.164 259.273 289.695 258.741C290.226 258.209 290.946 257.91 291.697 257.909H298.127C298.878 257.91 299.598 258.209 300.129 258.741C300.66 259.273 300.958 259.994 300.959 260.746V314.445C300.958 315.197 300.66 315.918 300.129 316.45C299.598 316.982 298.878 317.281 298.127 317.282Z" fill="#2F2E41"/>
<path d="M281.981 317.282H275.551C274.8 317.281 274.08 316.982 273.549 316.45C273.018 315.918 272.72 315.197 272.719 314.445V260.746C272.72 259.994 273.018 259.273 273.549 258.741C274.08 258.209 274.8 257.91 275.551 257.909H281.981C282.732 257.91 283.452 258.209 283.983 258.741C284.514 259.273 284.813 259.994 284.813 260.746V314.445C284.813 315.197 284.514 315.918 283.983 316.45C283.452 316.982 282.732 317.281 281.981 317.282Z" fill="#2F2E41"/>
<path d="M288.36 201.869C300.632 201.869 310.58 191.902 310.58 179.607C310.58 167.311 300.632 157.344 288.36 157.344C276.089 157.344 266.14 167.311 266.14 179.607C266.14 191.902 276.089 201.869 288.36 201.869Z" fill="#182D90"/>
<path d="M276.333 187.208C275.618 186.973 274.962 186.587 274.409 186.076C274.042 185.712 273.759 185.271 273.58 184.786C273.401 184.3 273.33 183.781 273.373 183.265C273.396 182.898 273.504 182.541 273.688 182.222C273.871 181.903 274.126 181.631 274.433 181.427C275.227 180.916 276.29 180.915 277.372 181.393L277.331 172.702L278.202 172.698L278.251 182.915L277.579 182.492C276.801 182.002 275.689 181.657 274.903 182.162C274.709 182.295 274.548 182.472 274.433 182.678C274.318 182.884 274.252 183.113 274.24 183.349C274.211 183.733 274.264 184.119 274.397 184.481C274.53 184.842 274.739 185.171 275.01 185.445C275.973 186.365 277.376 186.653 278.977 186.911L278.839 187.773C277.989 187.66 277.15 187.471 276.333 187.208Z" fill="#2F2E41"/>
<path d="M268.349 172.263L268.235 173.129L272.888 173.745L273.002 172.879L268.349 172.263Z" fill="#2F2E41"/>
<path d="M283.034 174.205L282.92 175.071L287.573 175.686L287.687 174.821L283.034 174.205Z" fill="#2F2E41"/>
<path d="M269.445 275.154C268.463 275.153 267.522 274.761 266.828 274.066C266.133 273.37 265.743 272.427 265.742 271.443C265.742 271.443 271.646 239.348 275.02 220.537C275.675 216.879 277.593 213.569 280.439 211.184C283.284 208.8 286.875 207.493 290.585 207.493C295.898 207.493 300.993 209.608 304.75 213.372C308.507 217.136 310.617 222.241 310.617 227.564V233.903C310.617 244.843 306.28 255.335 298.558 263.072C290.837 270.808 280.365 275.154 269.445 275.154Z" fill="#2F2E41"/>
<path d="M297.479 271.941C297.251 272.439 296.885 272.86 296.423 273.154C295.962 273.448 295.426 273.602 294.879 273.598L288.449 273.542C288.077 273.539 287.709 273.463 287.367 273.317C287.024 273.171 286.714 272.96 286.453 272.694C286.193 272.428 285.987 272.114 285.848 271.768C285.708 271.423 285.638 271.053 285.641 270.68L286.078 220.206C286.085 219.41 286.248 218.623 286.558 217.89C286.868 217.157 287.319 216.493 287.885 215.935C288.452 215.377 289.122 214.936 289.859 214.638C290.595 214.339 291.383 214.189 292.178 214.196C292.972 214.203 293.757 214.367 294.488 214.678C295.22 214.989 295.882 215.441 296.439 216.009C296.996 216.577 297.435 217.249 297.733 217.987C298.03 218.725 298.179 219.515 298.172 220.311L297.735 270.786C297.732 271.184 297.645 271.578 297.479 271.941Z" fill="#182D90"/>
<path d="M300.32 258.466C300.092 258.964 299.725 259.385 299.264 259.68C298.803 259.974 298.266 260.128 297.72 260.124L286.736 260.028C285.986 260.021 285.268 259.715 284.742 259.179C284.216 258.642 283.924 257.918 283.929 257.166L284.288 215.719C284.291 215.347 284.368 214.978 284.513 214.635C284.658 214.292 284.869 213.981 285.135 213.72C285.4 213.459 285.714 213.253 286.059 213.113C286.404 212.973 286.772 212.903 287.144 212.906L298.128 213.002C298.499 213.005 298.867 213.082 299.209 213.227C299.552 213.373 299.862 213.584 300.123 213.85C300.383 214.116 300.589 214.431 300.729 214.776C300.868 215.122 300.938 215.491 300.935 215.864L300.576 257.311C300.573 257.71 300.486 258.104 300.32 258.466Z" fill="#2F2E41"/>
<path d="M281.947 166.488C278.484 167.077 274.618 167.75 271.319 166.142C268.722 164.875 266.936 162.346 267.569 159.375C268.827 153.461 275.585 150.846 281.015 151.374C284.209 151.673 287.212 153.029 289.55 155.23C289.661 155.335 289.8 155.406 289.95 155.434C290.1 155.461 290.255 155.445 290.396 155.386C290.537 155.328 290.659 155.23 290.745 155.104C290.832 154.978 290.88 154.829 290.884 154.676C290.861 152.494 292.49 150.673 294.421 149.851C296.838 148.822 299.647 149.189 302.132 149.74C308.93 151.259 315.103 154.819 319.829 159.945C324.555 165.071 327.608 171.519 328.581 178.429C329.273 183.293 328.902 188.25 327.494 192.957C326.176 197.295 323.742 201.656 319.734 204.017C316.122 206.144 310.871 206.691 307.538 203.707C304.869 201.317 303.665 196.848 305.856 193.756C306.501 192.859 307.376 192.154 308.389 191.715C309.402 191.276 310.514 191.121 311.608 191.264C312.643 191.428 313.609 191.886 314.392 192.583C315.175 193.281 315.741 194.189 316.024 195.199C316.232 196.169 316.168 197.178 315.839 198.114C315.51 199.051 314.929 199.877 314.16 200.503C313.586 200.917 312.933 201.209 312.242 201.362C311.551 201.514 310.836 201.525 310.141 201.392C309.446 201.259 308.785 200.985 308.199 200.588C307.613 200.191 307.113 199.679 306.731 199.082C306.2 198.229 304.848 199.014 305.382 199.872C305.995 200.833 306.835 201.627 307.828 202.185C308.82 202.743 309.935 203.047 311.073 203.07C312.207 203.091 313.326 202.809 314.316 202.254C315.305 201.699 316.13 200.89 316.705 199.91C317.321 198.91 317.664 197.765 317.699 196.591C317.734 195.416 317.459 194.253 316.902 193.218C316.294 192.163 315.427 191.281 314.384 190.655C313.34 190.029 312.155 189.68 310.939 189.641C309.678 189.631 308.434 189.928 307.313 190.508C306.192 191.087 305.229 191.93 304.506 192.966C303.337 194.757 302.906 196.933 303.303 199.036C303.655 201.175 304.688 203.142 306.249 204.644C308.055 206.282 310.38 207.23 312.815 207.32C318.112 207.623 322.842 204.565 325.764 200.314C328.796 195.903 330.152 190.369 330.425 185.077C330.703 179.684 329.764 174.298 327.677 169.319C325.59 164.34 322.409 159.896 318.37 156.319C314.53 152.951 310.025 150.43 305.149 148.918C300.322 147.437 293.583 146.357 290.324 151.298C289.661 152.298 289.312 153.475 289.321 154.676L290.655 154.123C285.939 149.607 278.526 148.467 272.637 151.242C269.679 152.636 267.115 155.228 266.196 158.424C265.242 161.74 266.621 164.995 269.45 166.876C273.3 169.436 278.075 168.727 282.362 167.998C283.351 167.83 282.932 166.321 281.947 166.488Z" fill="#2F2E41"/>
</svg>
